<svg width="16" height="16" viewBox="0 0 16 16" fill="none" xmlns="http://www.w3.org/2000/svg">
<rect width="16" height="16" rx="1" fill="black"/>
<path d="M4.3501 11.6499C4.35007 11.9261 4.5739 12.1499 4.85004 12.15C5.12618 12.15 5.35007 11.9262 5.3501 11.65L4.3501 11.6499ZM4.85024 10.3748L5.35024 10.3749L4.85024 10.3748ZM8.4626 9.59997C8.73874 9.59997 8.9626 9.37612 8.9626 9.09997C8.9626 8.82383 8.73874 8.59997 8.4626 8.59997V9.59997ZM11.6501 10.025C11.9262 10.025 12.1501 9.80112 12.1501 9.52497C12.1501 9.24883 11.9262 9.02497 11.6501 9.02497V10.025ZM9.7376 9.02497C9.46145 9.02497 9.2376 9.24883 9.2376 9.52497C9.2376 9.80112 9.46145 10.025 9.7376 10.025V9.02497ZM10.1938 10.4812C10.1938 10.7573 10.4177 10.9812 10.6938 10.9812C10.97 10.9812 11.1938 10.7573 11.1938 10.4812H10.1938ZM11.1938 8.56868C11.1938 8.29253 10.97 8.06868 10.6938 8.06868C10.4177 8.06868 10.1938 8.29253 10.1938 8.56868H11.1938ZM8.6001 6.12498C8.6001 6.553 8.25312 6.89998 7.8251 6.89998V7.89998C8.8054 7.89998 9.6001 7.10528 9.6001 6.12498H8.6001ZM7.8251 6.89998C7.39708 6.89998 7.0501 6.553 7.0501 6.12498H6.0501C6.0501 7.10528 6.84479 7.89998 7.8251 7.89998V6.89998ZM7.0501 6.12498C7.0501 5.69695 7.39708 5.34998 7.8251 5.34998V4.34998C6.84479 4.34998 6.0501 5.14467 6.0501 6.12498H7.0501ZM7.8251 5.34998C8.25312 5.34998 8.6001 5.69695 8.6001 6.12498H9.6001C9.6001 5.14467 8.8054 4.34998 7.8251 4.34998V5.34998ZM5.3501 11.65L5.35024 10.3749L4.35024 10.3748L4.3501 11.6499L5.3501 11.65ZM6.12524 8.59997C5.14501 8.59997 4.35035 9.39455 4.35024 10.3748L5.35024 10.3749C5.35029 9.9469 5.69725 9.59997 6.12524 9.59997V8.59997ZM6.12524 9.59997H8.4626V8.59997H6.12524V9.59997ZM11.6501 9.02497H10.6938V10.025H11.6501V9.02497ZM10.6938 9.02497H9.7376V10.025H10.6938V9.02497ZM11.1938 10.4812V9.52497H10.1938V10.4812H11.1938ZM11.1938 9.52497V8.56868H10.1938V9.52497H11.1938Z" fill="white"/>
<line x1="11.25" y1="7.5" x2="11.25" y2="11" stroke="black"/>
</svg>
